Coordinates
version=1
nRows=10
nColumns=40
inDegrees=yes

Units are S.I. units (second, meters, Newtons, ...)
Angles are in degrees.

endheader
time	pelvis_tilt	pelvis_list	pelvis_rotation	pelvis_tx	pelvis_ty	pelvis_tz	hip_flexion_r	hip_adduction_r	hip_rotation_r	knee_angle_r	knee_angle_r_beta	ankle_angle_r	subtalar_angle_r	mtp_angle_r	hip_flexion_l	hip_adduction_l	hip_rotation_l	knee_angle_l	knee_angle_l_beta	ankle_angle_l	subtalar_angle_l	mtp_angle_l	lumbar_extension	lumbar_bending	lumbar_rotation	arm_flex_r	arm_add_r	arm_rot_r	elbow_flex_r	pro_sup_r	wrist_flex_r	wrist_dev_r	arm_flex_l	arm_add_l	arm_rot_l	elbow_flex_l	pro_sup_l	wrist_flex_l	wrist_dev_l
     39.97750000	     -5.69450765	     -4.31450549	      6.21178154	      0.94702709	      0.91862199	      0.49921158	     -3.64994333	      1.80225101	    -18.59785287	     14.52113624	     14.52113624	     18.05311644	      4.40976628	     -3.15524476	     28.36216444	     -3.68383915	      5.28492991	     27.24131829	     27.24131829	      6.98156396	    -15.10809897	      6.85136638	     -7.87982780	      2.41762942	      4.92633954	     51.21249861	    -15.91146440	     -6.05048618	     79.68509862	     45.10034997	      0.00000000	      0.00000000	     -9.79159864	    -10.13174674	     10.43486820	     37.11728500	     44.44372250	      0.00000000	      0.00000000
     39.99657143	     -5.82312504	     -4.31751292	      5.66634190	      0.94846975	      0.91912794	      0.49552469	     -3.68003537	      1.24573842	    -18.64240704	     15.14211834	     15.14211834	     17.76649226	      5.26358186	     -3.69230697	     28.02202147	     -3.60588540	      4.99553621	     27.52836833	     27.52836833	      7.69997883	    -15.40827064	      7.31823176	     -7.77081737	      2.51352516	      5.18915855	     50.75479684	    -15.77026692	     -6.22753933	     76.69589135	     45.20780602	      0.00000000	      0.00000000	     -9.27093681	    -10.23699067	     10.26869591	     37.63523573	     44.50611054	      0.00000000	      0.00000000
     40.01564286	     -5.83685531	     -4.43623829	      5.16138121	      0.94999969	      0.91977500	      0.49186336	     -3.87568472	      0.93062374	    -18.30985946	     15.59905673	     15.59905673	     17.44122877	      5.51924043	     -3.77097270	     27.53239371	     -3.65702927	      4.72484682	     27.73571809	     27.73571809	      8.25866865	    -15.73211727	      7.21369157	     -7.91920632	      2.77007538	      5.16349216	     49.57348075	    -15.45583766	     -6.10364954	     75.82490704	     45.22753500	      0.00000000	      0.00000000	     -8.72128201	    -10.36162866	     10.20311943	     37.86057795	     44.52544128	      0.00000000	      0.00000000
     40.03471429	     -6.01493325	     -4.28486200	      4.57018627	      0.95124281	      0.92007788	      0.48808985	     -3.42750844	      0.07134919	    -18.20252502	     16.99861491	     16.99861491	     17.20489009	      5.87859890	     -4.67373470	     27.13485003	     -3.49465217	      4.05760525	     27.84049467	     27.84049467	      9.00831408	    -15.63602537	      7.40496853	     -7.69189599	      2.65334347	      5.70399815	     48.88336595	    -15.84873439	     -6.55925339	     71.70297162	     45.37920579	      0.00000000	      0.00000000	     -7.89408912	    -10.51473247	     10.10888571	     38.27691611	     44.57098426	      0.00000000	      0.00000000
     40.05378571	     -5.88418065	     -4.45976777	      4.13911603	      0.95280884	      0.92085015	      0.48426341	     -3.59436990	     -0.21806073	    -17.88235111	     17.75834919	     17.75834919	     16.78540168	      5.96631769	     -4.85770761	     26.45685923	     -3.58696565	      3.81540449	     27.97415958	     27.97415958	      9.59128764	    -15.85157198	      7.29146745	     -7.94118219	      3.03120635	      5.39623565	     47.35439539	    -15.41954153	     -6.44362754	     70.58037224	     45.40562733	      0.00000000	      0.00000000	     -7.26953725	    -10.62476728	     10.08426458	     38.43889162	     44.58608528	      0.00000000	      0.00000000
     40.07285714	     -6.04890973	     -4.16054932	      3.53637325	      0.95395940	      0.92105729	      0.48041516	     -2.70011510	     -1.31001741	    -17.38422055	     19.94809104	     19.94809104	     16.36259499	      5.41486392	     -6.23815460	     25.95679969	     -3.30417877	      2.93928363	     27.92703160	     27.92703160	     10.30752941	    -15.50255094	      7.27893103	     -7.70323217	      2.74784081	      5.58522443	     46.41627819	    -15.56121056	     -6.87548413	     66.28313719	     45.56144978	      0.00000000	      0.00000000	     -6.24537836	    -10.78202276	     10.17836666	     38.35770106	     44.60704758	      0.00000000	      0.00000000
     40.09192857	     -5.93606120	     -4.26418037	      3.10599197	      0.95535954	      0.92167582	      0.47662077	     -2.42018298	     -1.69104722	    -16.64048430	     21.28524079	     21.28524079	     14.64613587	      4.01127674	     -9.91715952	     25.30319734	     -3.36409139	      2.47977547	     28.07507302	     28.07507302	     11.18466933	    -15.28509063	      7.61847467	     -7.61327235	      3.05403187	      4.37479726	     46.75369001	    -13.71009438	     -7.54309899	     58.83253859	     45.82929499	      0.00000000	      0.00000000	     -5.39635206	    -10.89294878	     10.87753589	     36.97059204	     44.60492323	      0.00000000	      0.00000000
     40.11100000	     -5.81074141	     -4.11580945	      2.65316051	      0.95675272	      0.92230572	      0.47270194	     -1.67571548	     -2.56682867	    -16.12865991	     23.69629630	     23.69629630	     13.98582379	      3.12425804	    -10.84990961	     24.46315168	     -3.16465756	      1.84481695	     27.92925290	     27.92925290	     11.77600056	    -15.09942930	      7.40976823	     -7.77578711	      3.03744379	      4.17615546	     44.63023795	    -13.75279136	     -7.57537568	     57.23927102	     45.87274116	      0.00000000	      0.00000000	     -4.40040824	    -11.07147980	     10.79478918	     37.17572954	     44.64032051	      0.00000000	      0.00000000
     40.13007143	     -5.75229483	     -4.02578874	      2.19457374	      0.95795030	      0.92276982	      0.46888531	     -0.55209062	     -3.36166666	    -15.32492311	     26.54810194	     26.54810194	     12.94189298	      1.56355443	    -12.13079151	     23.74247109	     -3.01821340	      1.23993076	     27.82153733	     27.82153733	     12.30476140	    -14.89569864	      7.18133812	     -7.77761963	      3.10016862	      4.06495896	     42.48154621	    -13.86148771	     -7.70066789	     54.93009220	     45.94453871	      0.00000000	      0.00000000	     -3.12164782	    -11.15299804	     10.87810290	     36.98976597	     44.66113824	      0.00000000	      0.00000000
     40.14914286	     -5.59699571	     -4.07610858	      1.80938468	      0.95917430	      0.92331821	      0.46523067	      0.40546981	     -3.78529572	    -14.20787962	     28.94326400	     28.94326400	      9.83120337	     -1.87382071	    -18.05327727	     22.98098764	     -3.00032362	      0.76689244	     27.79316742	     27.79316742	     12.87425502	    -14.68396724	      6.92422327	     -7.72346484	      3.36459103	      3.66075140	     41.20955211	    -13.25874957	     -8.92737223	     49.53925026	     46.12540267	      0.00000000	      0.00000000	     -1.22818807	    -11.17742635	     12.30622642	     34.89722438	     44.64862453	      0.00000000	      0.00000000
